<?xml version="1.0" encoding="UTF-8"?>
<svg id="Capa_1" data-name="Capa 1" xmlns="http://www.w3.org/2000/svg" viewBox="0 0 181.67 137.9">
  <defs>
    <style>
      .cls-1 {
        fill: #b23d02;
      }
    </style>
  </defs>
  <path class="cls-1" d="m34.37,17.95H5.17c-2.85,0-5.17-2.32-5.17-5.17v-7.6C0,2.32,2.32,0,5.17,0h29.2c2.85,0,5.17,2.32,5.17,5.17v7.6c0,2.85-2.32,5.17-5.17,5.17ZM5.17,3.45c-.95,0-1.72.77-1.72,1.72v7.6c0,.95.77,1.72,1.72,1.72h29.2c.95,0,1.72-.77,1.72-1.72v-7.6c0-.95-.77-1.72-1.72-1.72H5.17Z"/>
  <path class="cls-1" d="m176.25,107.19H54.45c-.86,0-1.59-.64-1.71-1.5L40.01,10.56h-2.19c-.95,0-1.72-.77-1.72-1.72s.77-1.72,1.72-1.72h3.7c.86,0,1.59.64,1.71,1.5l12.73,95.14h120.29c.95,0,1.72.77,1.72,1.72s-.77,1.72-1.72,1.72Z"/>
  <path class="cls-1" d="m166.02,83.61H52.32c-.95,0-1.72-.77-1.72-1.72s.77-1.72,1.72-1.72h112.32l13.15-58.52H43.22c-.95,0-1.72-.77-1.72-1.72s.77-1.72,1.72-1.72h136.72c.52,0,1.02.24,1.35.65.33.41.45.94.34,1.46l-13.93,61.97c-.18.79-.88,1.35-1.68,1.35Z"/>
  <path class="cls-1" d="m76.11,68.26h-3.52c-5.23,0-9.48-4.25-9.48-9.48v-20.29c0-5.23,4.25-9.48,9.48-9.48h3.52c5.23,0,9.48,4.25,9.48,9.48v20.29c0,5.23-4.25,9.48-9.48,9.48Zm-3.52-35.82c-3.33,0-6.04,2.71-6.04,6.04v20.29c0,3.33,2.71,6.04,6.04,6.04h3.52c3.33,0,6.04-2.71,6.04-6.04v-20.29c0-3.33-2.71-6.04-6.04-6.04h-3.52Z"/>
  <path class="cls-1" d="m113.63,68.26h-3.52c-5.23,0-9.48-4.25-9.48-9.48v-20.29c0-5.23,4.25-9.48,9.48-9.48h3.52c5.23,0,9.48,4.25,9.48,9.48v20.29c0,5.23-4.25,9.48-9.48,9.48Zm-3.52-35.82c-3.33,0-6.04,2.71-6.04,6.04v20.29c0,3.33,2.71,6.04,6.04,6.04h3.52c3.33,0,6.04-2.71,6.04-6.04v-20.29c0-3.33-2.71-6.04-6.04-6.04h-3.52Z"/>
  <path class="cls-1" d="m151.15,68.26h-3.52c-5.23,0-9.48-4.25-9.48-9.48v-20.29c0-5.23,4.25-9.48,9.48-9.48h3.52c5.23,0,9.48,4.25,9.48,9.48v20.29c0,5.23-4.25,9.48-9.48,9.48Zm-3.52-35.82c-3.33,0-6.04,2.71-6.04,6.04v20.29c0,3.33,2.71,6.04,6.04,6.04h3.52c3.33,0,6.04-2.71,6.04-6.04v-20.29c0-3.33-2.71-6.04-6.04-6.04h-3.52Z"/>
  <path class="cls-1" d="m84.44,137.9c-8.94,0-16.22-7.28-16.22-16.22s7.28-16.22,16.22-16.22,16.22,7.28,16.22,16.22-7.28,16.22-16.22,16.22Zm0-28.99c-7.04,0-12.77,5.73-12.77,12.77s5.73,12.77,12.77,12.77,12.77-5.73,12.77-12.77-5.73-12.77-12.77-12.77Z"/>
  <path class="cls-1" d="m139.02,137.9c-8.94,0-16.22-7.28-16.22-16.22s7.28-16.22,16.22-16.22,16.22,7.28,16.22,16.22-7.28,16.22-16.22,16.22Zm0-28.99c-7.04,0-12.77,5.73-12.77,12.77s5.73,12.77,12.77,12.77,12.77-5.73,12.77-12.77-5.73-12.77-12.77-12.77Z"/>
</svg>