<?xml version="1.0" encoding="utf-8"?>
<!-- Generator: Adobe Illustrator 27.2.0, SVG Export Plug-In . SVG Version: 6.00 Build 0)  -->
<svg version="1.1" id="Capa_1" xmlns="http://www.w3.org/2000/svg" xmlns:xlink="http://www.w3.org/1999/xlink" x="0px" y="0px"
	 viewBox="0 0 102 32" style="enable-background:new 0 0 102 32;" xml:space="preserve">
<style type="text/css">
	.st0{fill:#512F07;}
	.st1{fill:#A87129;}
	.st2{fill:#FFD57F;}
	.st3{fill:#FF993F;}
	.st4{fill:#FFB69F;}
	.st5{fill:#2B1806;}
	.st6{fill:#B78029;}
	.st7{font-family:'ArialRoundedMTBold';}
	.st8{font-size:18px;}
</style>
<g>
	<path class="st0" d="M29.71,22.12c-0.14-0.06-0.3,0-0.36,0.14l-1.76,3.92l-1.9,0.36c-0.15,0.03-0.24,0.17-0.22,0.32
		c0.02,0.13,0.14,0.22,0.27,0.22c0.02,0,0.03,0,0.05,0l1.28-0.24l-1,1.16c-0.1,0.11-0.08,0.28,0.03,0.38
		c0.05,0.04,0.11,0.07,0.18,0.07c0.08,0,0.15-0.03,0.21-0.09l1.33-1.55l0.74,0.59c0.05,0.04,0.11,0.06,0.17,0.06
		c0.08,0,0.16-0.03,0.21-0.1c0.09-0.12,0.08-0.29-0.04-0.38l-0.78-0.63l1.73-3.86C29.91,22.34,29.85,22.18,29.71,22.12z"/>
	<path class="st1" d="M52.14,11.86c0.04-0.01,0.1-0.04,0.07,0.02c-0.15,0.34-0.65,1.82-2.29,3.66c-2.97,3.34-6.21,4.99-6.21,4.99
		s-0.13-2.11,0.74-4.77c0.47-1.44,1.66-1.84,1.66-1.84L52.14,11.86z"/>
	<path class="st2" d="M41.61,12.23c1.32,0.95,5.29,1.84,5.29,1.84s-0.17,2.31-1.69,4.64c-0.55,0.85-1.14,1.59-1.95,2.19
		c-2.11,1.54-4.79,2.3-6.51,2.63c-2.76,0.53-6.23-0.19-8.2-1c-3.81-1.56-5.88-4.18-6.93-7.24c-0.84-2.45,1.45-6.41,3.11-7.92
		c3.82-3.47,10.9-2.3,12.46,0.43C38.4,9.9,39.14,10.45,41.61,12.23z"/>
	<g>
		<path class="st3" d="M37.55,10.69c0.02-1.5-0.35-4.11-2.04-6.34c-2.16-2.85-5.38-3-6.85-2.83C28.23,1.57,27.45,1.78,27,1.94
			c-0.57,0.21-1.14,0.48-1.66,0.8c-0.97,0.6-1.79,1.35-2.23,2.07c-0.88,1.42-2.07,3.88-2.02,6.86c0.08,4.29,1.29,5.5,3.45,6.47
			c2.63,1.18,5.71,0.99,8.15,0.04C34.82,17.35,37.5,14.94,37.55,10.69z"/>
		<g>
			<path class="st0" d="M22.69,12.99c-0.01,0-0.02,0-0.04,0c-0.15-0.02-0.25-0.16-0.23-0.3l0.13-0.98c0.02-0.15,0.16-0.25,0.3-0.23
				c0.15,0.02,0.25,0.16,0.23,0.3l-0.13,0.98C22.94,12.89,22.82,12.99,22.69,12.99z"/>
			<path class="st0" d="M26.4,13.76c-0.15,0-0.27-0.12-0.27-0.27v-0.58c0-0.15,0.12-0.27,0.27-0.27s0.27,0.12,0.27,0.27v0.58
				C26.67,13.64,26.54,13.76,26.4,13.76z"/>
			<path class="st0" d="M25.01,15.33c-0.14,0-0.26-0.11-0.27-0.26l-0.03-0.74c-0.01-0.15,0.11-0.28,0.26-0.28
				c0.15-0.01,0.28,0.11,0.28,0.26l0.03,0.74c0.01,0.15-0.11,0.28-0.26,0.28C25.02,15.33,25.02,15.33,25.01,15.33z"/>
			<path class="st0" d="M28.07,13.17c-0.13,0-0.24-0.09-0.27-0.22l-0.15-0.76c-0.03-0.15,0.07-0.29,0.21-0.32
				c0.15-0.03,0.29,0.07,0.32,0.21l0.15,0.76c0.03,0.15-0.07,0.29-0.21,0.32C28.11,13.17,28.09,13.17,28.07,13.17z"/>
		</g>
		<g>
			<path class="st4" d="M32.16,6.83c0-0.55-0.56-1-1.26-1s-1.26,0.45-1.26,1c0,0.55,0.56,1,1.26,1S32.16,7.38,32.16,6.83z"/>
			<path class="st5" d="M29.84,4.59c0-0.45-0.36-0.81-0.8-0.81c-0.44,0-0.8,0.36-0.8,0.81c0,0.45,0.36,0.81,0.8,0.81
				C29.48,5.41,29.84,5.04,29.84,4.59z"/>
			<path class="st0" d="M22.81,1.75l2.53,0.99c0,0,0.09,0.21,0.12,0.53c0.05,0.5-0.04,0.74-0.04,0.74s-0.39,0.18-1.07,0.33
				c-0.58,0.14-0.99,0.11-0.99,0.11L22.81,1.75z"/>
		</g>
		<path class="st6" d="M28.66,1.52c0,0,0.34,0.66,2.1,1.45c1.22,0.54,2.08,0.42,2.24,0.67c0.16,0.26-0.06,1.5,1.47,3.39
			c1.53,1.89,3.07,2.46,3.07,2.46s-0.31-3.71-2.32-5.76C32.49,0.94,28.66,1.52,28.66,1.52z"/>
	</g>
	<path class="st0" d="M38.91,27.61l-1.12-0.67l-0.24-3.93c-0.01-0.15-0.14-0.26-0.29-0.25c-0.15,0.01-0.26,0.14-0.25,0.29l0.24,3.93
		l-1.47,1.15c-0.12,0.09-0.14,0.26-0.05,0.38c0.05,0.07,0.13,0.1,0.21,0.1c0.06,0,0.12-0.02,0.17-0.06l1.22-0.95l0.28,1.7
		c0.02,0.13,0.14,0.23,0.27,0.23c0.01,0,0.03,0,0.04,0c0.15-0.02,0.25-0.16,0.22-0.31l-0.26-1.58l0.74,0.44
		c0.04,0.03,0.09,0.04,0.14,0.04c0.09,0,0.18-0.05,0.23-0.13C39.08,27.85,39.04,27.68,38.91,27.61z"/>
	<path class="st6" d="M36.97,7.18c0,0-2.12,1.65-1.99,4.23c0.11,1.38,0.48,2.9,2.48,4.15c1.69,1.06,5.01,1.14,6.99,0.5
		c2.14-0.7,4.46-3.09,4.46-3.09s-3.21,0.25-6.01-1.14C39.42,10.11,36.97,7.18,36.97,7.18z"/>
</g>
<text x="50" y="30" text-anchor="middle" font-size="20" fill="#FFFFFF">CucuStore</text>
</svg>
